<svg width="148" height="48" viewBox="0 0 148 48" fill="none" xmlns="http://www.w3.org/2000/svg">
<path d="M3.33 38L1.295 12.174H4.07L5.143 26.974L5.698 34.781H5.994L9.398 18.908H12.876L16.28 34.781H16.576L17.131 26.974L18.204 12.174H20.905L18.87 38H14.393L11.248 22.571H10.952L7.807 38H3.33Z" fill="url(#paint0_linear_253_195)"/>
<path d="M40.145 38V35.151L52.466 21.424H40.552V18.908H55.685V21.757L43.364 35.484H56.055V38H40.145ZM62.5155 38L60.4805 12.174H63.2555L64.3285 26.974L64.8835 34.781H65.1795L68.5835 18.908H72.0615L75.4655 34.781H75.7615L76.3165 26.974L77.3895 12.174H80.0905L78.0555 38H73.5785L70.4335 22.571H70.1375L66.9925 38H62.5155ZM92.4711 38.444C91.1391 38.444 89.9304 38.2097 88.8451 37.741C87.7844 37.2723 86.8718 36.6063 86.1071 35.743C85.3671 34.855 84.7998 33.8067 84.4051 32.598C84.0104 31.3647 83.8131 29.9833 83.8131 28.454C83.8131 26.9493 84.0104 25.5803 84.4051 24.347C84.7998 23.1137 85.3671 22.0653 86.1071 21.202C86.8718 20.314 87.7844 19.6357 88.8451 19.167C89.9304 18.6983 91.1391 18.464 92.4711 18.464C93.8031 18.464 94.9994 18.6983 96.0601 19.167C97.1454 19.6357 98.0581 20.314 98.7981 21.202C99.5628 22.0653 100.142 23.1137 100.537 24.347C100.932 25.5803 101.129 26.9493 101.129 28.454C101.129 29.9833 100.932 31.3647 100.537 32.598C100.142 33.8067 99.5628 34.855 98.7981 35.743C98.0581 36.6063 97.1454 37.2723 96.0601 37.741C94.9994 38.2097 93.8031 38.444 92.4711 38.444ZM92.4711 35.891C94.1238 35.891 95.4558 35.3977 96.4671 34.411C97.4784 33.4243 97.9841 31.895 97.9841 29.823V27.085C97.9841 25.013 97.4784 23.4837 96.4671 22.497C95.4558 21.5103 94.1238 21.017 92.4711 21.017C90.8184 21.017 89.4864 21.5103 88.4751 22.497C87.4638 23.4837 86.9581 25.013 86.9581 27.085V29.823C86.9581 31.895 87.4638 33.4243 88.4751 34.411C89.4864 35.3977 90.8184 35.891 92.4711 35.891ZM106.406 35.484H111.993V21.424H106.406V18.908H114.953V23.718H115.138C115.532 22.2133 116.272 21.0417 117.358 20.203C118.468 19.3397 119.874 18.908 121.576 18.908H124.24V21.868H120.651C118.949 21.868 117.567 22.3613 116.507 23.348C115.471 24.3347 114.953 25.6297 114.953 27.233V35.484H122.353V38H106.406V35.484ZM141.467 34.892H141.319C140.086 37.26 138.125 38.444 135.436 38.444C133.093 38.444 131.255 37.5683 129.923 35.817C128.616 34.0657 127.962 31.6113 127.962 28.454C127.962 25.2967 128.616 22.8423 129.923 21.091C131.255 19.3397 133.093 18.464 135.436 18.464C138.125 18.464 140.086 19.648 141.319 22.016H141.467V10.62H144.427V38H141.467V34.892ZM136.583 35.817C137.249 35.817 137.878 35.7307 138.47 35.558C139.062 35.3853 139.58 35.1387 140.024 34.818C140.468 34.4727 140.814 34.0657 141.06 33.597C141.332 33.1037 141.467 32.5363 141.467 31.895V25.013C141.467 24.3717 141.332 23.8167 141.06 23.348C140.814 22.8547 140.468 22.4477 140.024 22.127C139.58 21.7817 139.062 21.5227 138.47 21.35C137.878 21.1773 137.249 21.091 136.583 21.091C134.857 21.091 133.512 21.6213 132.55 22.682C131.613 23.718 131.144 25.0993 131.144 26.826V30.082C131.144 31.8087 131.613 33.2023 132.55 34.263C133.512 35.299 134.857 35.817 136.583 35.817Z" fill="url(#paint1_linear_253_195)"/>
<path d="M33.1199 14.4571C31.9684 15.99 31.9772 16.7079 33.1309 18.2508C33.1957 18.3374 33.0883 18.4443 33.0019 18.3792C31.466 17.2215 30.7489 17.2251 29.211 18.3714C29.1241 18.4362 29.0159 18.3276 29.0811 18.2408C30.2237 16.7187 30.2236 15.9982 29.0884 14.4756C29.0205 14.3845 29.1329 14.2722 29.2239 14.3402C30.7453 15.4775 31.4596 15.4691 32.9906 14.3273C33.077 14.2629 33.1846 14.3709 33.1199 14.4571Z" fill="url(#paint2_linear_253_195)"/>
<path d="M26.076 21.5001C24.9246 23.033 24.9334 23.7509 26.0871 25.2937C26.1519 25.3803 26.0445 25.4873 25.9581 25.4221C24.4222 24.2644 23.7051 24.2681 22.1672 25.4143C22.0803 25.4791 21.9721 25.3706 22.0372 25.2838C23.18 23.7616 23.1798 23.0412 22.0446 21.5185C21.9766 21.4275 22.0891 21.3152 22.1801 21.3832C23.7014 22.5204 24.4158 22.5121 25.9468 21.3703C26.0332 21.3058 26.1409 21.4138 26.076 21.5001Z" fill="url(#paint3_linear_253_195)"/>
<path d="M38.6552 20.9699C37.7916 22.1195 37.7982 22.6579 38.6635 23.815C38.7121 23.88 38.6316 23.9602 38.5668 23.9114C37.4148 23.0431 36.877 23.0458 35.7236 23.9055C35.6584 23.9541 35.5773 23.8727 35.6261 23.8076C36.4831 22.6661 36.483 22.1257 35.6315 20.9837C35.5807 20.9154 35.665 20.8312 35.7332 20.8822C36.8742 21.7351 37.4099 21.7289 38.5582 20.8725C38.6231 20.8242 38.7039 20.9051 38.6552 20.9699Z" fill="url(#paint4_linear_253_195)"/>
<path d="M30.6412 22.7353C30.7735 22.7081 30.9321 22.6898 31.1106 22.6898C31.2891 22.6897 31.4478 22.7081 31.5799 22.7353L31.5799 25.4678C31.4477 25.495 31.2891 25.5134 31.1106 25.5134C30.9321 25.5134 30.7735 25.4951 30.6412 25.4679L30.6412 22.7353ZM29.8351 21.6746C29.751 21.8008 29.7025 21.9719 29.7025 22.1522L29.7025 36.7268C29.7025 37.0119 29.8239 37.2742 30.0159 37.3722C30.287 37.5104 30.6758 37.5973 31.1107 37.5974C31.5455 37.5973 31.9342 37.5104 32.2054 37.3722C32.276 37.3362 32.3372 37.2779 32.3861 37.2043C32.4703 37.0781 32.5187 36.907 32.5187 36.7269L32.5187 22.1522C32.5187 21.8671 32.3972 21.6047 32.2053 21.5068C31.9342 21.3685 31.5454 21.2816 31.1106 21.2816C30.6757 21.2816 30.287 21.3686 30.0159 21.5068C29.9452 21.5428 29.8841 21.6012 29.8351 21.6746Z" fill="url(#paint5_linear_253_195)"/>
<defs>
<linearGradient id="paint0_linear_253_195" x1="11.5" y1="0" x2="11.5" y2="48" gradientUnits="userSpaceOnUse">
<stop stop-color="#A9A6D5"/>
<stop offset="0.56" stop-color="#FFA7BB"/>
<stop offset="1" stop-color="#FFC392"/>
</linearGradient>
<linearGradient id="paint1_linear_253_195" x1="92.5" y1="0" x2="92.5" y2="48" gradientUnits="userSpaceOnUse">
<stop stop-color="#A9A6D5"/>
<stop offset="0.56" stop-color="#FFA7BB"/>
<stop offset="1" stop-color="#FFC392"/>
</linearGradient>
<linearGradient id="paint2_linear_253_195" x1="29.098" y1="14.3468" x2="33.1231" y2="18.3719" gradientUnits="userSpaceOnUse">
<stop stop-color="#A9A6D5"/>
<stop offset="0.56" stop-color="#FFA7BB"/>
<stop offset="1" stop-color="#FFC392"/>
</linearGradient>
<linearGradient id="paint3_linear_253_195" x1="22.0542" y1="21.3898" x2="26.0793" y2="25.4149" gradientUnits="userSpaceOnUse">
<stop stop-color="#A9A6D5"/>
<stop offset="0.56" stop-color="#FFA7BB"/>
<stop offset="1" stop-color="#FFC392"/>
</linearGradient>
<linearGradient id="paint4_linear_253_195" x1="35.6388" y1="20.8871" x2="38.6576" y2="23.9059" gradientUnits="userSpaceOnUse">
<stop stop-color="#A9A6D5"/>
<stop offset="0.56" stop-color="#FFA7BB"/>
<stop offset="1" stop-color="#FFC392"/>
</linearGradient>
<linearGradient id="paint5_linear_253_195" x1="26.5824" y1="24.9113" x2="35.6388" y2="33.9677" gradientUnits="userSpaceOnUse">
<stop stop-color="#A9A6D5"/>
<stop offset="0.56" stop-color="#FFA7BB"/>
<stop offset="1" stop-color="#FFC392"/>
</linearGradient>
</defs>
</svg>
